<?xml version="1.0" encoding="UTF-8"?>
<!DOCTYPE svg PUBLIC "-//W3C//DTD SVG 1.1//EN" "http://www.w3.org/Graphics/SVG/1.1/DTD/svg11.dtd">
<svg version="1.1" xmlns="http://www.w3.org/2000/svg" xmlns:xlink="http://www.w3.org/1999/xlink" width="100%" height="100%" viewBox="-2 -2 750 600">
 <title>Comparison of some newspaper sizes</title>
 <desc>Comparison of some newspaper sizes by CMG Lee. Approximate nominal dimensions in millimeters were obtained from their respective articles. Rectangles are rounded for clarity.</desc>
 <defs>
  <radialGradient id="grad" cx="50%" cy="50%" r="100%" fx="33%" fy="33%">
   <stop offset="25%" stop-color="#000000" stop-opacity="0"/>
   <stop offset="50%" stop-color="#000000" stop-opacity="0.05"/>
   <stop offset="75%" stop-color="#000000" stop-opacity="0.2"/>
  </radialGradient>
 </defs>
 <g font-family="sans-serif" font-size="16" font-weight="bold" text-anchor="start" stroke="none" stroke-linecap="round" fill="none">
  <g stroke-width="2" stroke-dasharray="10,5" fill="url(#grad)">
   <text x="420" y="180" fill="#333333">&#8212;A2 &amp; Australian/</text>
   <text x="420" y="195" fill="#333333">&#160; &#160; NZ broadsheet (420&#215;594)</text>
   <rect width="420" height="594" x="0" y="0" rx="5" ry="5" stroke="none"/>
   <text x="353" y="140" fill="#333333">&#8212;B3 (353&#215;500)</text>
   <rect width="353" height="500" x="0" y="0" rx="5" ry="5" stroke="none"/>
   <text x="324" y="120" fill="#333333">&#8212;C3 (324&#215;458)</text>
   <rect width="324" height="458" x="0" y="0" rx="5" ry="5" stroke="none"/>
   <text x="297" y="100" fill="#333333">&#8212;A3 (297&#215;420)</text>
   <rect width="297" height="420" x="0" y="0" rx="5" ry="5" stroke="none"/>
   <text x="250" y="60" fill="#333333">&#8212;B4 (250&#215;353)</text>
   <rect width="250" height="353" x="0" y="0" rx="5" ry="5" stroke="none"/>
   <text x="229" y="40" fill="#333333">&#8212;C4 (229&#215;324)</text>
   <rect width="229" height="324" x="0" y="0" rx="5" ry="5" stroke="none"/>
   <text x="210" y="20" fill="#333333">&#8212;A4 (210&#215;297)</text>
   <rect width="210" height="297" x="0" y="0" rx="5" ry="5" stroke="none"/>
  </g>
  <text x="375" y="597" fill="#cc00cc">&#8212;British broadsheet (375&#215;597)</text>
  <rect width="375" height="597" x="0" y="0" rx="5" ry="5" stroke="#cc00cc"/>
  <text x="410" y="583" fill="#009900">&#8212;South African broadsheet (410&#215;578)</text>
  <rect width="410" height="578" x="0" y="0" rx="5" ry="5" stroke="#009900"/>
  <text x="305" y="568" fill="#006699">&#8212;Wall Street Journal (305&#215;578)</text>
  <rect width="305" height="578" x="0" y="0" rx="5" ry="5" stroke="#006699" stroke-width="3" stroke-dasharray="0.1,5"/>
  <text x="305" y="554" fill="#000099">&#8212;New York Times (305&#215;559)</text>
  <rect width="305" height="559" x="0" y="0" rx="5" ry="5" stroke="#000099"/>
  <text x="381" y="540" fill="#0000ff">&#8212;US broadsheet (381&#215;578)</text>
  <rect width="381" height="578" x="0" y="0" rx="5" ry="5" stroke="#0000ff" stroke-width="2" stroke-dasharray="5,5"/>
  <text x="400" y="525" fill="#cc9900">&#8212;Nordisch (400&#215;570)</text>
  <rect width="400" height="570" x="0" y="0" rx="5" ry="5" stroke="#cc9900"/>
  <text x="350" y="510" fill="#999900">&#8212;Rhenish (350&#215;520)</text>
  <rect width="350" height="520" x="0" y="0" rx="5" ry="5" stroke="#999900" stroke-width="3" stroke-dasharray="0.1,5"/>
  <text x="350" y="490" fill="#990000">&#8212;Ciner Format (350&#215;500)</text>
  <rect width="350" height="500" x="0" y="0" rx="5" ry="5" stroke="#990000"/>
  <text x="320" y="470" fill="#ff0000">&#8212;Swiss/Neue Z&#252;rcher Zeitung (320&#215;475)</text>
  <rect width="320" height="475" x="0" y="0" rx="5" ry="5" stroke="#ff0000"/>
  <text x="315" y="450" fill="#000000">&#8212;Berliner/midi (315&#215;470)</text>
  <rect width="315" height="470" x="0" y="0" rx="5" ry="5" stroke="#000000"/>
  <text x="280" y="430" fill="#cc00cc">&#8212;British tabloid/compact (280&#215;430)</text>
  <rect width="280" height="430" x="0" y="0" rx="5" ry="5" stroke="#cc00cc" stroke-width="3" stroke-dasharray="0.1,5"/>
  <text x="280" y="400" fill="#000099">&#8212;Norwegian tabloid (280&#215;400)</text>
  <rect width="280" height="400" x="0" y="0" rx="5" ry="5" stroke="#000099"/>
  <text x="260" y="383" fill="#990000">&#8212;Canadian tall tab (260&#215;413)</text>
  <rect width="260" height="413" x="0" y="0" rx="5" ry="5" stroke="#990000" stroke-width="3" stroke-dasharray="0.1,5"/>
  <text x="260" y="368" fill="#ff0000">&#8212;Canadian tabloid (260&#215;368)</text>
  <rect width="260" height="368" x="0" y="0" rx="5" ry="5" stroke="#ff0000"/>
 </g>
</svg>
